<?xml version="1.0" encoding="UTF-8"?>
<svg width="444px" height="233px" viewBox="0 0 444 233" version="1.1" xmlns="http://www.w3.org/2000/svg" xmlns:xlink="http://www.w3.org/1999/xlink">
    <!-- Generator: Sketch 51.2 (57519) - http://www.bohemiancoding.com/sketch -->
    <title>Oval-3</title>
    <desc>Created with Sketch.</desc>
    <defs>
        <linearGradient x1="74.2388704%" y1="-11.67103%" x2="72.4134931%" y2="137.535626%" id="linearGradient-1">
            <stop stop-color="#919191" stop-opacity="0.3" offset="0%"></stop>
            <stop stop-color="#1A1A1A" stop-opacity="0.4" offset="72.8687484%"></stop>
            <stop stop-color="#000000" offset="100%"></stop>
        </linearGradient>
    </defs>
    <g id="Page-1" stroke="none" stroke-width="1" fill="none" fill-rule="evenodd">
        <g id="draft" fill="url(#linearGradient-1)" fill-rule="nonzero">
            <path d="M443.767636,232.248132 L441.769698,232.157343 C441.799811,231.494646 441.826978,230.831522 441.851194,230.167986 L443.849863,230.240928 C443.82543,230.910414 443.79802,231.579487 443.767636,232.248132 Z M443.914171,228.233256 L441.914931,228.178135 C441.933213,227.51504 441.948552,226.851555 441.960945,226.187692 L443.960596,226.225019 C443.948093,226.894814 443.932617,227.564231 443.914171,228.233256 Z M443.989174,224.215353 L441.98927,224.1958 C441.995756,223.532441 441.999302,222.868724 441.999907,222.204663 L443.999906,222.206484 C443.999296,222.876456 443.995718,223.546083 443.989174,224.215353 Z M443.992811,220.194628 L441.992875,220.21056 C441.987567,219.544257 441.979295,218.878315 441.968061,218.212746 L443.967776,218.178994 C443.97911,218.850503 443.987456,219.522385 443.992811,220.194628 Z M443.924933,216.170164 L441.925597,216.221708 C441.908496,215.558359 441.888449,214.8954 441.865462,214.232847 L443.864259,214.163497 C443.887453,214.831985 443.907678,215.500878 443.924933,216.170164 Z M443.785955,212.163324 L441.787854,212.250451 C441.759069,211.590314 441.72736,210.930599 441.692731,210.27132 L443.689978,210.166415 C443.724918,210.831618 443.756911,211.497259 443.785955,212.163324 Z M443.575123,208.152612 L441.5789,208.275474 C441.538056,207.611847 441.494249,206.948682 441.447484,206.285995 L443.442522,206.145207 C443.489709,206.813868 443.533911,207.483007 443.575123,208.152612 Z M443.291874,204.138963 L441.298183,204.297692 C441.245663,203.638024 441.190207,202.978851 441.13182,202.320186 L443.124009,202.143589 C443.182923,202.808207 443.23888,203.473336 443.291874,204.138963 Z M442.935661,200.123331 L440.945162,200.318041 C440.880388,199.655861 440.812646,198.994218 440.741941,198.333127 L442.7306,198.120437 C442.801945,198.787518 442.8703,199.455154 442.935661,200.123331 Z M442.50848,196.128465 L440.521817,196.359057 C440.445498,195.701523 440.366242,195.044558 440.284055,194.388177 L442.268559,194.139693 C442.351492,194.802034 442.431467,195.464963 442.50848,196.128465 Z M442.010966,192.155008 L440.028781,192.421365 C439.940202,191.762172 439.848661,191.103593 439.754164,190.445641 L441.733851,190.161313 C441.829207,190.825251 441.921581,191.489821 442.010966,192.155008 Z M441.440465,188.18207 L439.463426,188.484255 C439.363484,187.83039 439.260618,187.177169 439.154832,186.524607 L441.129059,186.204567 C441.23581,186.863076 441.339613,187.522248 441.440465,188.18207 Z M440.796481,184.210674 L438.825259,184.548731 C438.713007,183.894183 438.597811,183.240324 438.479678,182.587168 L440.447747,182.231213 C440.566959,182.890329 440.683205,183.550155 440.796481,184.210674 Z M440.078534,180.241863 L438.113805,180.615818 C437.989197,179.961135 437.861631,179.307185 437.731114,178.653984 L439.692346,178.262106 C439.824056,178.921275 439.952787,179.5812 440.078534,180.241863 Z M439.29058,176.297842 L437.332987,176.707512 C437.197325,176.059256 437.05875,175.411764 436.917268,174.765052 L438.87106,174.337618 C439.013836,174.990245 439.153678,175.643658 439.29058,176.297842 Z M438.43329,172.379283 L436.483468,172.82447 C436.335616,172.176913 436.184844,171.530166 436.031156,170.884243 L437.976839,170.421298 C438.131933,171.073133 438.284086,171.7258 438.43329,172.379283 Z M437.497005,168.445149 L435.555675,168.926021 C435.395598,168.279774 435.232597,167.634382 435.066678,166.98986 L437.00353,166.491257 C437.170968,167.141682 437.335462,167.792984 437.497005,168.445149 Z M436.496791,164.559116 L434.564538,165.075256 C434.3939,164.436445 434.220389,163.798518 434.044012,163.16149 L435.971496,162.627818 C436.149489,163.270681 436.324589,163.914453 436.496791,164.559116 Z M435.434425,160.721427 L433.511817,161.272408 C433.329314,160.635577 433.14394,159.999675 432.955701,159.364718 L434.873213,158.796256 C435.063176,159.437032 435.250249,160.078761 435.434425,160.721427 Z M434.286657,156.85069 L432.374472,157.436819 C432.180082,156.802644 431.982829,156.169443 431.782718,155.53723 L433.689481,154.933694 C433.891425,155.5717 434.090486,156.210704 434.286657,156.85069 Z M433.077386,153.029978 L431.176182,153.650801 C430.970089,153.019665 430.761142,152.389545 430.549347,151.760459 L432.444808,151.122314 C432.658543,151.757164 432.869405,152.393058 433.077386,153.029978 Z M431.794448,149.219346 L429.904893,149.874769 C429.687208,149.247194 429.466682,148.62068 429.243323,147.995243 L431.126818,147.322601 C431.352223,147.953767 431.574769,148.586021 431.794448,149.219346 Z M430.43748,145.419987 L428.560242,146.109899 C428.3311,145.486407 428.099133,144.864018 427.864352,144.242749 L429.735216,143.535737 C429.972148,144.162695 430.206239,144.790784 430.43748,145.419987 Z M429.013805,141.65286 L427.149486,142.376957 C426.909079,141.757985 426.66587,141.14016 426.419866,140.523497 L428.277505,139.782433 C428.525761,140.404741 428.771197,141.028222 429.013805,141.65286 Z M427.524137,137.91868 L425.67333,138.676646 C425.421869,138.062628 425.167629,137.449797 424.91062,136.83817 L426.754448,136.063382 C427.013809,136.680604 427.270375,137.299043 427.524137,137.91868 Z M425.96919,134.21816 L424.132479,135.009673 C423.87019,134.401031 423.60515,133.793617 423.337368,133.187448 L425.166808,132.379272 C425.437039,132.990984 425.704503,133.603952 425.96919,134.21816 Z M424.340983,130.532811 L422.519024,131.357713 C422.246117,130.754945 421.97049,130.153443 421.692152,129.553226 L423.506556,128.711834 C423.787437,129.317536 424.065583,129.924534 424.340983,130.532811 Z M422.648255,126.882924 L420.841621,127.740871 C420.556204,127.139851 420.26806,126.540155 419.977198,125.941802 L421.775939,125.067428 C422.069457,125.671244 422.360232,126.276416 422.648255,126.882924 Z M420.89173,123.269225 L419.100987,124.159865 C418.805448,123.565646 418.507219,122.972789 418.20631,122.38131 L419.98889,121.474442 C420.292544,122.071317 420.593494,122.669584 420.89173,123.269225 Z M419.062441,119.673809 L417.288235,120.596951 C416.982841,120.010008 416.674799,119.424462 416.364119,118.840329 L418.1299,117.901171 C418.443412,118.490629 418.754263,119.081514 419.062441,119.673809 Z M417.170154,116.116427 L415.413041,117.071703 C415.095833,116.488237 414.775982,115.906222 414.453502,115.325675 L416.201874,114.354493 C416.527292,114.940328 416.850056,115.527645 417.170154,116.116427 Z M415.215605,112.597816 L413.476133,113.584849 C413.149679,113.009531 412.820631,112.435695 412.489,111.863359 L414.219488,110.860657 C414.554137,111.438202 414.88618,112.017261 415.215605,112.597816 Z M413.220846,109.154744 L411.499362,110.172828 C411.161714,109.601896 410.821486,109.032498 410.478689,108.46465 L412.19089,107.431032 C412.536804,108.004044 412.880127,108.57862 413.220846,109.154744 Z M411.155581,105.733264 L409.452707,106.782178 C409.104143,106.216297 408.753018,105.651999 408.399343,105.089301 L410.092645,104.025003 C410.449533,104.592815 410.803849,105.162241 411.155581,105.733264 Z M409.019595,102.334729 L407.335953,103.414242 C406.976781,102.854067 406.615071,102.295521 406.250836,101.738622 L407.924625,100.643894 C408.292167,101.205849 408.657162,101.769467 409.019595,102.334729 Z M406.812691,98.9605203 L405.148904,100.07039 C404.77946,99.516564 404.407507,98.9644119 404.033058,98.4139513 L405.686721,97.2890517 C406.064568,97.8445064 406.439895,98.4016683 406.812691,98.9605203 Z M404.558478,95.6463415 L402.914956,96.7860066 C402.535631,96.2389782 402.153829,95.6936667 401.769563,95.1500889 L403.402699,93.9955912 C403.790449,94.544097 404.175713,95.0943529 404.558478,95.6463415 Z M402.234218,92.3584129 L400.611577,93.5276164 C400.222754,92.9880017 399.831492,92.4501435 399.437802,91.9140587 L401.049807,90.7302351 C401.447064,91.2711769 401.841872,91.8139085 402.234218,92.3584129 Z M399.852246,89.1148538 L398.25099,90.3131782 C397.85309,89.7814863 397.452791,89.2515879 397.050106,88.7234995 L398.640487,87.5107802 C399.046818,88.0436503 399.450742,88.5783471 399.852246,89.1148538 Z M397.413308,85.9164103 L395.833936,87.1434333 C395.4274,86.620157 395.018509,86.0987079 394.607276,85.5791025 L396.175546,84.3379219 C396.5905,84.8622296 397.003092,85.3883979 397.413308,85.9164103 Z M394.918152,82.7638282 L393.361157,84.0191234 C392.943983,83.5016858 392.524475,82.9861281 392.102647,82.4724669 L393.648257,81.2031809 C394.073902,81.7214883 394.497205,82.2417096 394.918152,82.7638282 Z M392.367524,79.6578536 L390.833392,80.9409901 C390.408521,80.4330093 389.981367,79.9269357 389.551945,79.4227856 L391.07449,78.1259213 C391.507795,78.6346298 391.938811,79.1452794 392.367524,79.6578536 Z M389.762171,76.5992323 L388.251383,77.9097749 C387.816854,77.4088516 387.380072,76.9098812 386.941052,76.41288 L388.439995,75.088807 C388.882983,75.5903005 389.323713,76.093781 389.762171,76.5992323 Z M387.102838,73.5887104 L385.615872,74.9262194 C385.172212,74.4329842 384.726335,73.9417439 384.278255,73.4525145 L385.753134,72.1016881 C386.205263,72.5953384 386.65517,73.0910179 387.102838,73.5887104 Z M384.376081,70.6118167 L382.913533,71.9759845 C382.461306,71.4911439 382.006901,71.0083357 381.550333,70.5275757 L383.000565,69.1503215 C383.461257,69.6354251 383.919768,70.1225955 384.376081,70.6118167 Z M381.610759,67.69999 L380.172972,69.0902298 C379.712751,68.6142692 379.250397,68.1403745 378.785924,67.6685611 L380.211181,66.2654778 C380.67985,66.7415536 381.146381,67.2197295 381.610759,67.69999 Z M378.793701,64.8385044 L377.381135,66.2543634 C376.911097,65.7854182 376.438951,65.3185895 375.964712,64.8538927 L377.364483,63.4253819 C377.843005,63.8942768 378.319416,64.3653228 378.793701,64.8385044 Z M375.910661,62.0136785 L374.523907,63.4548287 C374.044726,62.9937346 373.56347,62.5348023 373.080156,62.0780471 L374.453866,60.6244582 C374.941547,61.0853402 375.427151,61.5484187 375.910661,62.0136785 Z M372.992109,59.2553836 L371.631488,60.7212314 C371.146238,60.2708149 370.65897,59.8225786 370.1697,59.3765376 L371.517113,57.8985392 C372.010803,58.3486107 372.502474,58.8008972 372.992109,59.2553836 Z M370.024064,56.5496718 L368.690023,58.0397506 C368.19463,57.5962344 367.697243,57.1549546 367.197877,56.7159261 L368.518432,55.2138825 C369.022311,55.6568791 369.524194,56.1021472 370.024064,56.5496718 Z M366.991512,53.8836866 L365.684636,55.3976466 C365.182275,54.9639994 364.677966,54.5326166 364.171728,54.1035129 L365.464926,52.5778528 C365.975741,53.0108362 366.484609,53.446119 366.991512,53.8836866 Z M363.926468,51.2856621 L362.647057,52.8229021 C362.136154,52.3976884 361.623339,51.9747824 361.108628,51.5541985 L362.374125,50.0054837 C362.893491,50.4298718 363.410944,50.8566027 363.926468,51.2856621 Z M360.814172,48.7424635 L359.56266,50.3025015 C359.044077,49.8864777 358.523622,49.472798 358.001313,49.0614762 L359.238697,47.4902087 C359.765732,47.9052525 360.290896,48.3226755 360.814172,48.7424635 Z M357.655368,46.2548374 L356.432186,47.8371858 C355.906819,47.4310683 355.379627,47.0273238 354.850627,46.6259659 L356.05949,45.0326519 C356.59328,45.4376437 357.125245,45.8450434 357.655368,46.2548374 Z M354.434081,43.8110809 L353.239806,45.4153582 C352.706388,45.0182653 352.171183,44.6235863 351.634207,44.2313348 L352.813938,42.6163318 C353.355779,43.0121369 353.895832,43.4103912 354.434081,43.8110809 Z M351.18427,41.4371374 L350.019174,43.0627299 C349.4787,42.6753608 348.93648,42.2904386 348.392533,41.9079764 L349.542884,40.2719165 C350.091763,40.6578459 350.638897,41.0462573 351.18427,41.4371374 Z M347.890194,39.1210105 L346.754694,40.7674128 C346.208232,40.3905255 345.660072,40.0161091 345.110233,39.6441764 L346.230816,37.9875853 C346.785643,38.3628922 347.338775,38.7407049 347.890194,39.1210105 Z M344.570003,36.8749922 L343.464355,38.5415884 C342.910829,38.1743702 342.355647,37.8096574 341.798825,37.4474625 L342.889354,35.7709341 C343.451231,36.1364172 344.011453,36.5044407 344.570003,36.8749922 Z M341.189855,34.6764302 L340.114621,36.3628085 C339.555305,36.0061892 338.994381,35.6520991 338.431865,35.3005502 L339.491811,33.6045215 C340.059438,33.9592645 340.625458,34.3165715 341.189855,34.6764302 Z M337.785515,32.5488465 L336.740936,34.2543831 C336.17499,33.9077621 335.607477,33.5637023 335.038414,33.2222156 L336.067513,31.5072945 C336.641751,31.8518863 337.214424,32.1990743 337.785515,32.5488465 Z M334.358362,30.4920424 L333.344668,32.2161147 C332.773407,31.8802332 332.200626,31.546934 331.626341,31.2162285 L332.624399,29.4830579 C333.20391,29.8167729 333.781903,30.1531049 334.358362,30.4920424 Z M330.873242,28.4852135 L329.890982,30.2273857 C329.312003,29.9009498 328.73154,29.5771396 328.149607,29.2559663 L329.116009,27.5049474 C329.703242,27.8290459 330.288992,28.1558051 330.873242,28.4852135 Z M327.367185,26.5499918 L326.416573,28.3096325 C325.833361,27.9945633 325.248715,27.6821325 324.662652,27.3723509 L325.597279,25.6041675 C326.188684,25.9167729 326.778659,26.2320513 327.367185,26.5499918 Z M323.878829,24.7054374 L322.95973,26.4817413 C322.369935,26.1765684 321.778744,25.8740688 321.186173,25.5742531 L322.089095,23.7896715 C322.687072,24.0922222 323.283656,24.3974811 323.878829,24.7054374 Z M320.27871,22.8840751 L319.392159,24.6768458 C318.797981,24.3830162 318.202455,24.0918752 317.605598,23.803433 L318.47584,22.0026891 C319.078147,22.2937647 319.679109,22.5875635 320.27871,22.8840751 Z M316.660424,21.1355264 L315.80661,22.9441177 C315.206401,22.6607661 314.604883,22.3801342 314.002073,22.1022317 L314.839401,20.2859493 C315.447718,20.5663908 316.054732,20.8495865 316.660424,21.1355264 Z M313.006042,19.4508659 L312.185316,21.2747107 C311.579587,21.0021344 310.972592,20.7323047 310.364346,20.4652312 L311.168424,18.6339861 C311.782231,18.9035014 312.394776,19.1757978 313.006042,19.4508659 Z M309.335697,17.8391308 L308.548227,19.6775788 C307.93761,19.4160306 307.325769,19.1572511 306.712721,18.9012496 L307.4834,17.0557 C308.102056,17.3140435 308.719494,17.5751902 309.335697,17.8391308 Z M305.611477,16.2840775 L304.857771,18.1366237 C304.243365,17.8866536 303.627783,17.639465 303.011041,17.3950668 L303.747844,15.5357334 C304.370232,15.7823686 304.991448,16.0318197 305.611477,16.2840775 Z M301.873095,14.8027061 L301.1533,16.6686895 C300.534713,16.430072 299.914993,16.194253 299.294157,15.9612412 L299.996928,14.0887796 C300.62345,14.3239253 301.248844,14.5619036 301.873095,14.8027061 Z M298.121791,13.3946925 L297.436038,15.2734534 C296.813293,15.0461497 296.189458,14.8216622 295.56455,14.5999991 L296.23316,12.7150691 C296.863793,12.9387627 297.493342,13.1653066 298.121791,13.3946925 Z M294.318579,12.0458478 L293.667351,13.9368533 C293.039844,13.7207512 292.411287,13.5074889 291.781698,13.2970745 L292.415648,11.4002068 C293.051006,11.6125492 293.685322,11.8277656 294.318579,12.0458478 Z M290.524463,10.7776437 L289.907685,12.6801644 C289.276315,12.4754807 288.643938,12.2736533 288.01057,12.0746897 L288.609962,10.1666205 C289.249134,10.3674073 289.887307,10.5710843 290.524463,10.7776437 Z M286.679846,9.57001352 L286.09798,11.4835004 C285.463376,11.2905258 284.827808,11.1004187 284.191293,10.9131865 L284.755687,8.99447342 C285.398034,9.18342135 286.039426,9.37527049 286.679846,9.57001352 Z M282.826108,8.43643083 L282.279235,10.360211 C281.64121,10.1788395 281.002263,10.0003493 280.36241,9.8247474 L280.89172,7.89606124 C281.537436,8.07327197 282.182237,8.25339752 282.826108,8.43643083 Z M278.943682,7.37101912 L278.432055,9.30447146 C277.790431,9.13468595 277.147925,8.96779777 276.504554,8.8038136 L276.998527,6.86577567 C277.64779,7.0312617 278.29618,7.19967843 278.943682,7.37101912 Z M275.054132,6.379587 L274.577803,8.32203655 C273.933343,8.16400144 273.288043,8.00887354 272.64192,7.85665921 L273.100527,5.90994941 C273.752565,6.06355705 274.403772,6.22010506 275.054132,6.379587 Z M271.137567,5.45696659 L270.69676,7.40778422 C270.049721,7.26157935 269.401884,7.11828991 268.753264,6.97792198 L269.176292,5.02317201 C269.830845,5.16482388 270.484608,5.30942411 271.137567,5.45696659 Z M267.194668,4.6038379 L266.789596,6.56238749 C266.140147,6.42806664 265.48994,6.2966686 264.83899,6.16819916 L265.226235,4.20604688 C265.883133,4.33569032 266.539282,4.46828927 267.194668,4.6038379 Z M263.247411,3.82487994 L262.878078,5.79048249 C262.225803,5.66792137 261.57281,5.54829492 260.919113,5.43160865 L261.270562,3.46272989 C261.930226,3.58048124 262.58918,3.70119977 263.247411,3.82487994 Z M259.29687,3.11963646 L258.963264,5.09161702 C258.30907,4.98094516 257.654198,4.8732124 256.998662,4.76842397 L257.314356,2.79349695 C257.975868,2.89924053 258.636711,3.00795545 259.29687,3.11963646 Z M255.322554,2.48439126 L255.02484,4.4621087 C254.368715,4.36333945 253.711951,4.26751451 253.054561,4.17463883 L253.334342,2.19430482 C253.997714,2.28802567 254.660456,2.38472282 255.322554,2.48439126 Z M251.346795,1.92266282 L251.084925,3.90544486 C250.42741,3.81860573 249.769293,3.734712 249.11059,3.65376835 L249.354522,1.66869978 C250.019208,1.75037863 250.683303,1.83503455 251.346795,1.92266282 Z M247.348824,1.43147556 L247.122932,3.41867778 C246.463678,3.34373805 245.803861,3.27174858 245.143495,3.20271381 L245.351442,1.21355367 C246.017793,1.28321412 246.683592,1.35585625 247.348824,1.43147556 Z M243.351198,1.01356519 L243.161202,3.00452005 C242.500572,2.9414762 241.839416,2.88138493 241.177748,2.82425046 L241.349806,0.831665195 C242.017456,0.889316235 242.684592,0.94995098 243.351198,1.01356519 Z M239.33289,0.666706952 L239.178887,2.66076887 C238.51755,2.60969311 237.855724,2.56156696 237.193422,2.5163944 L237.329517,0.521030215 C237.99779,0.566610089 238.665586,0.61517033 239.33289,0.666706952 Z M235.316663,0.392844219 L235.198536,2.38935268 C234.536342,2.35017281 233.873696,2.31394162 233.21061,2.28066287 L233.310859,0.283176923 C233.979906,0.316754843 234.648512,0.35331186 235.316663,0.392844219 Z M231.303471,0.19142811 L231.221086,2.18973055 C230.558258,2.16240369 229.895014,2.13802331 229.231364,2.11659293 L229.295914,0.117634869 C229.96551,0.139257269 230.6347,0.163856192 231.303471,0.19142811 Z M227.294245,0.0618954274 L227.247448,2.06134786 C226.584251,2.04582576 225.920671,2.03324628 225.256721,2.02361273 L225.285737,0.0238232171 C225.955615,0.0335427771 226.625122,0.0462346181 227.294245,0.0618954274 Z M223.267478,0.00354250114 L223.256296,2.00351124 C222.838142,2.00117332 222.419848,2.00000265 222.001426,2 C221.751769,2 221.503407,2.00041108 221.254917,2.00123484 L221.248286,0.00124582755 C221.498988,0.000414737488 221.74956,-1.61154445e-11 222.001432,4.52018867e-09 C222.423584,2.66964812e-06 222.8456,0.00118376238 223.267478,0.00354250114 Z M219.254043,0.0166356412 L219.278285,2.01648871 C218.614359,2.02453702 217.950799,2.0355302 217.287617,2.04946495 L217.245602,0.049906308 C217.914708,0.0358470929 218.584192,0.0247557761 219.254043,0.0166356412 Z M215.233636,0.101157928 L215.293486,2.10026222 C214.632547,2.12004974 213.972006,2.14276229 213.311873,2.16839642 L213.234268,0.169902622 C213.900318,0.144038718 214.566778,0.121122668 215.233636,0.101157928 Z M211.20881,0.257699378 L211.304432,2.25541218 C210.639691,2.28723043 209.975388,2.32201484 209.311536,2.35976168 L209.197999,0.362986952 C209.867821,0.324900649 210.538096,0.289803541 211.20881,0.257699378 Z M207.20257,0.485375466 L207.333913,2.4810581 C206.672849,2.52456488 206.012254,2.5710131 205.352142,2.62039884 L205.20293,0.625972601 C205.868997,0.576141411 206.535548,0.529274389 207.20257,0.485375466 Z M203.193567,0.785413835 L203.360758,2.77841333 C202.696811,2.83411151 202.033374,2.89278565 201.370462,2.95443153 L201.185276,0.96302345 C201.854183,0.90082005 202.523618,0.841615431 203.193567,0.785413835 Z M199.182756,1.15835947 L199.385907,3.14801514 C198.726384,3.21535479 198.067404,3.2856403 197.40898,3.35886725 L197.187912,1.37112257 C197.852305,1.29723177 198.517258,1.22630926 199.182756,1.15835947 Z M195.192863,1.60212443 L195.43187,3.58779202 C194.77038,3.6674128 194.109477,3.75000722 193.449174,3.83557056 L193.192159,1.85215347 C193.858461,1.76581279 194.525367,1.68246819 195.192863,1.60212443 Z M191.202905,2.11907276 L191.477842,4.10008498 C190.821462,4.19118155 190.1657,4.28521682 189.510569,4.38218589 L189.21773,2.40374076 C189.878823,2.30588909 190.540553,2.21099812 191.202905,2.11907276 Z M187.235395,2.70632673 L187.546126,4.68204089 C186.888693,4.78543872 186.231922,4.89179626 185.575827,5.0011083 L185.247138,3.02830238 C185.909214,2.9179938 186.571971,2.81066683 187.235395,2.70632673 Z M183.269613,3.36699864 L183.616177,5.33674307 C182.964531,5.45139616 182.313578,5.56896928 181.663333,5.68945702 L181.298944,3.72293199 C181.955126,3.60134432 182.61202,3.48269805 183.269613,3.36699864 Z M179.306606,4.1015672 L179.689026,6.06466541 C179.037302,6.19162425 178.386316,6.32151684 177.736082,6.45433744 L177.335815,4.49480015 C177.991992,4.36076565 178.648927,4.22968607 179.306606,4.1015672 Z M175.368547,4.90598324 L175.786637,6.86179524 C175.135312,7.00102764 174.484771,7.14320398 173.835028,7.28831817 L173.399086,5.33640752 C174.054773,5.18996585 174.711265,5.04648904 175.368547,4.90598324 Z M171.435145,5.78446031 L171.888894,7.73230825 C171.24445,7.88243097 170.600819,8.03545013 169.958016,8.19135945 L169.486592,6.2477135 C170.135279,6.09037693 170.784802,5.93595709 171.435145,5.78446031 Z M167.528325,6.73218185 L168.017516,8.67143211 C167.374367,8.83367167 166.732076,8.99881114 166.090659,9.16684389 L165.58382,7.2321309 C166.231112,7.06255912 166.879286,6.89590721 167.528325,6.73218185 Z M163.648768,7.74846778 L164.173172,9.67849384 C163.531785,9.85276387 162.891302,10.0299338 162.251737,10.2099966 L161.709729,8.2848401 C162.355154,8.10312751 163.001505,7.9243344 163.648768,7.74846778 Z M159.797159,8.83263792 L160.356532,10.7528206 C159.71737,10.9390167 159.079155,11.1281093 158.441904,11.3200909 L157.864985,9.40510654 C158.508076,9.21136566 159.152139,9.02054033 159.797159,8.83263792 Z M155.953814,9.9903485 L156.548087,11.9000184 C155.911678,12.0980635 155.276262,12.2989973 154.641855,12.5028123 L154.030113,10.5986664 C154.670334,10.3929836 155.311573,10.1902084 155.953814,9.9903485 Z M152.119893,11.2219865 L152.748981,13.1204725 C152.121195,13.3284973 151.494428,13.5393511 150.868697,13.753026 L150.222381,11.8603361 C150.853845,11.6447034 151.486355,11.4319175 152.119893,11.2219865 Z M148.316623,12.5208725 L148.980241,14.4075655 C148.356066,14.6271105 147.732954,14.8494705 147.110921,15.0746375 L146.430178,13.1940554 C147.057909,12.9668258 147.68673,12.7424288 148.316623,12.5208725 Z M144.524833,13.8937042 L145.22287,15.7679361 C144.602825,15.9988647 143.983885,16.2325906 143.366067,16.4691052 L142.651027,14.6012943 C143.274503,14.3626139 143.89911,14.1267477 144.524833,13.8937042 Z M140.785145,15.3253251 L141.517114,17.1865672 C140.901559,17.4286457 140.287151,17.673501 139.673907,17.9211243 L138.925067,16.0666059 C139.543924,15.8167162 140.163955,15.5696196 140.785145,15.3253251 Z M137.039172,16.838267 L137.805114,18.685788 C137.189771,18.9408955 136.575636,19.1987988 135.962724,19.4594886 L135.179928,17.6190458 C135.798446,17.3559712 136.4182,17.0957085 137.039172,16.838267 Z M133.346729,18.4085707 L134.146139,20.2418583 C133.536335,20.507765 132.927779,20.776439 132.320487,21.0478708 L131.504385,19.2219524 C132.117229,18.9480392 132.731349,18.6769088 133.346729,18.4085707 Z M129.66967,20.0520437 L130.502388,21.8704441 C129.898618,22.1469348 129.296134,22.4261605 128.694954,22.7081114 L127.845721,20.8973644 C128.452394,20.6128377 129.060383,20.3310608 129.66967,20.0520437 Z M126.028244,21.7598679 L126.893925,23.5628089 C126.296595,23.8496165 125.70059,24.1391238 125.105925,24.4313209 L124.22392,22.6363092 C124.824013,22.3414447 125.42546,22.0492942 126.028244,21.7598679 Z M122.423175,23.5313184 L123.321466,25.3182359 C122.726586,25.6172845 122.133086,25.9190344 121.540985,26.2234751 L120.626452,24.4448157 C121.223954,24.137598 121.822868,23.8330953 122.423175,23.5313184 Z M118.836608,25.3754384 L119.767315,27.1456882 C119.179864,27.45454 118.593828,27.7660505 118.009225,28.0802089 L117.062493,26.3184776 C117.652424,26.0014558 118.243801,25.6871058 118.836608,25.3754384 Z M115.288247,27.282384 L116.251,29.035412 C115.671358,29.353748 115.093164,29.6746972 114.516437,29.9982488 L113.537886,28.2539901 C114.119866,27.9274921 114.703325,27.6036197 115.288247,27.282384 Z M111.797005,29.2410041 L112.791262,30.976358 C112.215675,31.3061357 111.641589,31.6385159 111.069021,31.9734869 L110.059091,30.2472072 C110.636869,29.9091882 111.216179,29.5737833 111.797005,29.2410041 Z M108.345024,31.2603439 L109.370406,32.9774905 C108.799463,33.3184251 108.230071,33.6619466 107.662247,34.008043 L106.621334,32.300267 C107.19432,31.9510239 107.768889,31.6043789 108.345024,31.2603439 Z M104.93303,33.3396788 L105.989151,35.0380924 C105.427235,35.3875073 104.866898,35.7394545 104.308156,36.0939221 L103.236763,34.4051014 C103.80058,34.0474136 104.366008,33.6922687 104.93303,33.3396788 Z M101.526661,35.5009894 L102.613446,37.1799468 C102.057376,37.53989 101.50293,37.9023409 100.950126,38.2672871 L99.8482407,36.5982012 C100.406063,36.2299421 100.965542,35.8642007 101.526661,35.5009894 Z M98.1799249,37.7104104 L99.2968147,39.3694937 C98.7470516,39.7395925 98.1989577,40.1121706 97.6525499,40.4872155 L96.5207437,38.838272 C97.072108,38.4598251 97.6251741,38.083867 98.1799249,37.7104104 Z M94.8587026,39.9902126 L96.0054456,41.6288036 C95.4626169,42.008694 94.921499,42.3910307 94.3821087,42.7758007 L93.2206495,41.1476076 C93.7649292,40.7593499 94.3109525,40.3735471 94.8587026,39.9902126 Z M91.5812814,42.3282958 L92.7574637,43.9458851 C92.2220914,44.3351652 91.688469,44.7268545 91.156613,45.1209398 L89.965928,43.5139958 C90.5026019,43.1163406 91.0410586,42.7211028 91.5812814,42.3282958 Z M88.3650421,44.7113535 L89.5700957,46.3075508 C89.0393472,46.7082408 88.5104069,47.1113292 87.9832915,47.5168021 L86.7638709,45.9315534 C87.2957585,45.5224096 87.8294878,45.1156717 88.3650421,44.7113535 Z M85.1772249,47.1634657 L86.4108782,48.7376638 C85.8886907,49.146887 85.3683445,49.5584629 84.849856,49.9723777 L83.6020768,48.4093527 C84.1252568,47.9916926 84.6503117,47.5763923 85.1772249,47.1634657 Z M82.0354432,49.6716224 L83.2972686,51.22333 C82.781086,51.643082 82.2667967,52.0651649 81.7544173,52.4895646 L80.4786369,50.94931 C80.9956505,50.5210718 81.5145915,50.0951712 82.0354432,49.6716224 Z M78.9245297,52.2485017 L80.2142379,53.7771131 C79.7077446,54.2044477 79.2031708,54.6340593 78.7005327,55.0659336 L77.3971387,53.5489748 C77.9043211,53.113196 78.4134568,52.6797002 78.9245297,52.2485017 Z M75.8773048,54.8667884 L77.1943147,56.3719412 C76.6950362,56.8088102 76.1977221,57.2479252 75.7023885,57.6892714 L74.371894,56.1960251 C74.8717045,55.75069 75.3735135,55.3076061 75.8773048,54.8667884 Z M72.878357,57.5388761 L74.2222279,59.0200955 C73.7307894,59.4659646 73.2413562,59.9140437 72.7539443,60.3643179 L71.3968057,58.8952451 C71.8886219,58.4409022 72.3824777,57.9887742 72.878357,57.5388761 Z M69.9284322,60.2640187 L71.2987193,61.7208349 C70.8157225,62.1751436 70.3347678,62.6316218 69.8558709,63.0902543 L68.4725482,61.6458104 C68.9557717,61.1830343 69.4410717,60.722432 69.9284322,60.2640187 Z M67.0133806,63.0559959 L68.4097678,64.4878139 C67.9333899,64.9524037 67.459108,65.4191399 66.9869379,65.8880069 L65.5776969,64.4688383 C66.0541325,63.9957355 66.532699,63.5247828 67.0133806,63.0559959 Z M64.1640035,65.8852749 L65.5859013,67.2917621 C65.1191976,67.7635795 64.6546175,68.2374932 64.1921764,68.7134877 L62.7576876,67.3198443 C63.2243064,66.8395497 63.6930835,66.3613546 64.1640035,65.8852749 Z M61.3658912,68.7653665 L62.8128414,70.1460674 C62.3540378,70.6268854 61.8974023,71.1097666 61.4429501,71.5946951 L59.9836231,70.2270822 C60.4421814,69.7377724 60.9029425,69.2505285 61.3658912,68.7653665 Z M58.6056981,71.7108359 L60.0773638,73.0651624 C59.6272598,73.5542634 59.1793624,74.0453883 58.7336866,74.5385211 L57.2498789,73.1975085 C57.6995822,72.6999195 58.151527,72.2043565 58.6056981,71.7108359 Z M55.9126292,74.6905683 L57.4084139,76.0182084 C56.9675715,76.5148831 56.5289688,77.013538 56.0926204,77.5141569 L54.5849428,76.2000381 C55.0252353,75.6948942 55.4678024,75.1917321 55.9126292,74.6905683 Z M53.2730676,77.7188716 L54.7924984,79.019383 C54.3615494,79.522875 53.9328672,80.0282988 53.5064661,80.535638 L51.9754074,79.248836 C52.4056641,78.7369094 52.8382223,78.2269158 53.2730676,77.7188716 Z M50.6745067,80.8110614 L52.2172245,82.0838622 C51.7949575,82.5956774 51.3749986,83.1093876 50.9573619,83.6249767 L49.4032483,82.3661157 C49.8246629,81.8458628 50.2484204,81.3275058 50.6745067,80.8110614 Z M48.1444856,83.9345105 L49.7098857,85.1793088 C49.2969436,85.6986054 48.8863442,86.2197556 48.4781014,86.7427428 L46.9015541,85.5120931 C47.3134917,84.9843727 47.7278068,84.4585063 48.1444856,83.9345105 Z M45.670215,87.1042888 L47.2578083,88.3206552 C46.8548985,88.8465304 46.4543586,89.3742122 46.0562022,89.903684 L44.4577288,88.7016512 C44.8594906,88.167385 45.2636572,87.6349252 45.670215,87.1042888 Z M43.2524414,90.3196502 L44.8617334,91.5071599 C44.467877,92.0409071 44.0764303,92.5764235 43.6874065,93.1136923 L42.0674751,91.9407379 C42.4600237,91.398601 42.855017,90.8582328 43.2524414,90.3196502 Z M40.8919117,93.5798489 L42.5224016,94.7380815 C42.1383954,95.2786622 41.75683,95.8209686 41.3777182,96.3649839 L39.7368505,95.221501 C40.1193997,94.6725532 40.5044244,94.1253302 40.8919117,93.5798489 Z M38.5893727,96.8841387 L40.2405536,98.0126784 C39.865672,98.5611725 39.4932727,99.1113563 39.1233684,99.6632128 L37.4620518,98.5496476 C37.8353124,97.992784 38.2110903,97.4376086 38.5893727,96.8841387 Z M36.3455715,100.231774 L38.0169299,101.330209 C37.6520359,101.885425 37.2896558,102.442287 36.9298019,103.000779 L35.2485731,101.917511 C35.6116945,101.353948 35.9773648,100.79203 36.3455715,100.231774 Z M34.161255,103.622007 L35.852271,104.689933 C35.4981703,105.250636 35.1466046,105.812938 34.7975859,106.37682 L33.0969866,105.324222 C33.449177,104.755216 33.8039372,104.187805 34.161255,103.622007 Z M32.0588705,107.018315 L33.7688214,108.055652 C33.4248045,108.622731 33.0833526,109.191366 32.7444775,109.761539 L31.0252116,108.739714 C31.3671686,108.164356 31.7117255,107.590551 32.0588705,107.018315 Z M30.0056644,110.472987 L31.734122,111.479185 C31.3999861,112.053167 31.0684507,112.628666 30.7395273,113.205663 L29.0020176,112.215179 C29.333935,111.632929 29.6684877,111.052192 30.0056644,110.472987 Z M28.0237518,113.949308 L29.7700881,114.924147 C29.44664,115.503575 29.1258154,116.084475 28.8076257,116.666828 L27.0525225,115.707863 C27.3736109,115.120205 27.6973577,114.534015 28.0237518,113.949308 Z M26.1129023,117.445941 L27.8764903,118.389211 C27.5634517,118.974484 27.2530644,119.561186 26.9453391,120.1493 L25.1732626,119.222075 C25.4837935,118.6286 25.7970104,118.03655 26.1129023,117.445941 Z M24.2632947,120.980271 L26.0435948,121.891606 C25.7409358,122.482852 25.4409575,123.075486 25.1436702,123.669489 L23.3551598,122.774375 C23.6551596,122.174951 23.9578747,121.576911 24.2632947,120.980271 Z M22.4663988,124.570477 L24.2629475,125.449347 C23.9717458,126.044609 23.6832369,126.641208 23.3974309,127.239128 L21.5929798,126.376599 C21.8813955,125.77322 22.1725386,125.171173 22.4663988,124.570477 Z M20.732837,128.197333 L22.5450735,129.043382 C22.2645882,129.644181 21.9868224,130.246276 21.7117858,130.849649 L19.8919356,130.020104 C20.1694854,129.411217 20.4497892,128.803621 20.732837,128.197333 Z M19.0633342,131.860114 L20.8906894,132.672993 C20.6212075,133.27879 20.3544674,133.885838 20.0904788,134.494121 L18.255807,133.697893 C18.5222095,133.084048 18.7913884,132.471449 19.0633342,131.860114 Z M17.466847,135.538644 L19.3086694,136.318189 C19.0497505,136.929933 18.7936055,137.542892 18.5402436,138.157046 L16.6913909,137.394325 C16.947071,136.774551 17.2055595,136.155985 17.466847,135.538644 Z M15.9351808,139.251293 L17.7908911,139.997174 C17.5436902,140.612196 17.2992715,141.228383 17.0576438,141.845718 L15.1952215,141.116758 C15.4390611,140.493771 15.6857172,139.871944 15.9351808,139.251293 Z M14.4690493,142.997347 L16.3380601,143.709244 C16.101899,144.32926 15.8685447,144.9504 15.6380057,145.572647 L13.7625838,144.877814 C13.9952342,144.249868 14.2307255,143.62304 14.4690493,142.997347 Z M13.0691663,146.776091 L14.950882,147.453694 C14.7259409,148.07836 14.5038287,148.704108 14.2845536,149.330922 L12.3967337,148.670516 C12.6180176,148.037959 12.8421646,147.406479 13.0691663,146.776091 Z M11.7430844,150.566673 L13.6368389,151.209863 C13.4233208,151.838527 13.2126488,152.468231 13.0048306,153.098959 L11.1052849,152.473079 C11.3150075,151.836571 11.5276099,151.201097 11.7430844,150.566673 Z M10.4839642,154.388191 L12.3891518,154.996682 C12.1870816,155.629365 11.9878753,156.263046 11.7915403,156.89771 L9.88087628,156.30664 C10.0790104,155.666161 10.2800423,155.026672 10.4839642,154.388191 Z M9.29250831,158.239943 L11.2085151,158.813456 C11.0181353,159.449481 10.8306318,160.086462 10.6460117,160.724381 L8.72485034,160.168378 C8.91116217,159.524613 9.10038392,158.881796 9.29250831,158.239943 Z M8.17518021,162.10061 L10.1013323,162.639069 C9.9226068,163.278398 9.74677038,163.918641 9.57382996,164.55978 L7.64284507,164.038918 C7.81736985,163.391905 7.99481722,162.745797 8.17518021,162.10061 Z M7.13158629,165.96904 L9.06721185,166.472382 C8.90034367,167.114081 8.73636974,167.75665 8.57529665,168.400072 L6.63516605,167.914384 C6.79771419,167.265069 6.96318982,166.616616 7.13158629,165.96904 Z M6.15125325,169.885914 L8.09577427,170.353716 C7.94065947,170.998485 7.788451,171.644083 7.63915514,172.290495 L5.69045469,171.840421 C5.84111694,171.188093 5.99471858,170.536586 6.15125325,169.885914 Z M5.24995339,173.78783 L7.20264778,174.220248 C7.05923194,174.86788 6.91873344,175.516301 6.7811583,176.165495 L4.82460891,175.750869 C4.9634422,175.095738 5.10522571,174.441387 5.24995339,173.78783 Z M4.41327451,177.736825 L6.37355021,178.13346 C6.24193855,178.78392 6.11325553,179.435129 5.98750687,180.087071 L4.02370381,179.708287 C4.1506013,179.050388 4.28046013,178.393229 4.41327451,177.736825 Z M3.65083705,181.689987 L5.61801434,182.050838 C5.49837447,182.703054 5.38166562,183.355978 5.26789323,184.009594 L3.29752061,183.66662 C3.41233116,183.007039 3.53010513,182.348157 3.65083705,181.689987 Z M2.96218218,185.646243 L4.93558551,185.971326 C4.82774827,186.625947 4.72285102,187.281236 4.62089892,187.93718 L2.64462772,187.630012 C2.74750877,186.968092 2.853362,186.30683 2.96218218,185.646243 Z M2.34368206,189.626116 L4.32266897,189.915271 C4.22674948,190.571747 4.13377466,191.228852 4.0437494,191.886574 L2.06222481,191.615354 C2.15306895,190.95165 2.24688968,190.288565 2.34368206,189.626116 Z M1.79876332,193.607246 L3.78266115,193.860523 C3.69865881,194.518506 3.61760342,195.17708 3.53949962,195.836232 L1.55339368,195.600896 C1.63220653,194.93576 1.71399797,194.271205 1.79876332,193.607246 Z M1.32692548,197.588616 L3.3150673,197.806083 C3.24292281,198.465646 3.17372893,199.125763 3.10749006,199.786421 L1.11746737,199.586897 C1.18430626,198.920255 1.2541271,198.254157 1.32692548,197.588616 Z M0.925653277,201.591159 L2.91739636,201.772707 C2.85716792,202.433468 2.799891,203.094747 2.74556975,203.75653 L0.752273551,203.592913 C0.807085634,202.925151 0.864880268,202.257895 0.925653277,201.591159 Z M0.595582583,205.614234 L2.59028054,205.759768 C2.54200951,206.421374 2.49668842,207.083462 2.45432117,207.746016 L0.458397681,207.618386 C0.501146677,206.949862 0.546876289,206.281807 0.595582583,205.614234 Z M0.339780691,209.612907 L2.3367623,209.722745 C2.30032421,210.38523 2.26683553,211.048159 2.23629993,211.711521 L0.238415479,211.619555 C0.269225379,210.950235 0.303015017,210.281347 0.339780691,209.612907 Z M0.154868995,213.630414 L2.15349638,213.704498 C2.12891984,214.367513 2.10728971,215.030938 2.08860948,215.694759 L0.0894008954,215.638501 C0.108248368,214.968736 0.130072227,214.29937 0.154868995,213.630414 Z M0.041461904,217.666133 L2.04109532,217.704424 C2.02839532,218.367647 2.01863656,219.031244 2.0118223,219.695204 L0.0119276195,219.674679 C0.0188026631,219.004797 0.0286485117,218.335277 0.041461904,217.666133 Z M0.000233470759,221.67456 L2.00023141,221.67743 C2.00004265,221.834469 2.00004265,221.834469 2.00000016,221.991505 C2,222.558129 2.00207823,223.117089 2.00625641,223.676842 L0.00631212242,223.69177 C0.00209672966,223.127032 -3.27147665e-10,222.563096 1.60477612e-07,221.991467 C4.30277424e-05,221.832997 4.30277424e-05,221.832997 0.000233470759,221.67456 Z M0.0302291232,225.70095 L2.02996196,225.668261 C2.04081498,226.332188 2.05461438,226.995742 2.07135684,227.658908 L0.0719939058,227.709385 C0.0551017735,227.04029 0.0411790676,226.370807 0.0302291232,225.70095 Z M277.978709,94.4677239 L256.515789,195 L236.094737,155.277778 L250.389474,125.740741 L226.905263,148.148148 L183,141.018519 L269.444645,91.0958281 C254.774953,85.8545166 238.97083,83 222.5,83 C145.456277,83 83,145.456277 83,222.5 C83,225.690777 83.1071083,228.868606 83.3203719,232.030008 L81.3249071,232.164619 C81.1086215,228.95842 81,225.735695 81,222.5 C81,144.351708 144.351708,81 222.5,81 C239.802927,81 256.380481,84.1056929 271.705632,89.7900488 L280,85 L278.404682,92.4724669 C328.75086,114.147365 364,164.207244 364,222.5 C364,225.75262 363.890239,228.992131 363.671691,232.214921 L361.676274,232.079605 C361.891768,228.901846 362,225.707466 362,222.5 C362,165.171834 327.41899,115.920496 277.978709,94.4677239 Z M0.131644777,229.717531 L2.13047845,229.649238 C2.15315179,230.312852 2.17877557,230.976058 2.20734623,231.638843 L0.209201861,231.724977 C0.180374891,231.056246 0.154521346,230.387093 0.131644777,229.717531 Z" id="Oval-3"></path>
        </g>
    </g>
</svg>