<?xml version="1.0" encoding="UTF-8"?>
<svg width="240px" height="350px" viewBox="0 0 240 350" version="1.1" xmlns="http://www.w3.org/2000/svg" xmlns:xlink="http://www.w3.org/1999/xlink">
    <!-- Generator: sketchtool 48.2 (47327) - http://www.bohemiancoding.com/sketch -->
    <title>EC473722-3730-43E9-A67A-F6383426D9F0</title>
    <desc>Created with sketchtool.</desc>
    <defs></defs>
    <g id="Retail_1170_11" stroke="none" stroke-width="1" fill="none" fill-rule="evenodd" transform="translate(-931.000000, -5487.000000)">
        <g id="4_CTA-block" transform="translate(0.000000, 5487.000000)">
            <g id="ill_CTA" transform="translate(931.000000, 0.000000)">
                <path d="M80,244 L132,244 C149.673112,244 164,258.326888 164,276 L164,300.527473 C164,318.200585 149.673112,332.527473 132,332.527473 L87.2166836,332.527473 C74.3849049,332.527473 62.1924658,338.128995 53.83347,347.864586 L52,350 L52,272 C52,256.536027 64.536027,244 80,244 Z" id="Rectangle-7" fill="#070951" opacity="0.695878623"></path>
                <path d="M77,274.21185 C88.0565742,274.21185 90.0115209,284.808848 100.367669,277.3258 C110.723817,269.842751 122.147804,277.3258 127,277.3258" id="Path-2" stroke="#0040C0" stroke-width="2" stroke-linecap="round" stroke-linejoin="round" transform="translate(102.000000, 277.000000) scale(1, -1) translate(-102.000000, -277.000000) "></path>
                <path d="M85,289.21185 C96.0565742,289.21185 98.0115209,299.808848 108.367669,292.3258 C118.723817,284.842751 130.147804,292.3258 135,292.3258" id="Path-2" stroke="#0040C0" stroke-width="2" stroke-linecap="round" stroke-linejoin="round" transform="translate(110.000000, 292.000000) scale(-1, -1) translate(-110.000000, -292.000000) "></path>
                <g id="Group-54">
                    <g id="Group-37" transform="translate(33.000000, 57.000000)" stroke="#FFFFFF" stroke-linecap="round" stroke-linejoin="round" stroke-width="2">
                        <path d="M0.9453125,0.818703882 C21.5741853,0.818703882 26.173733,21.8011451 45.4957816,14.806998 C64.8178301,7.81285096 86.9469846,14.806998 96,14.806998" id="Path-2" transform="translate(48.472656, 8.526539) scale(1, -1) translate(-48.472656, -8.526539) "></path>
                        <path d="M5.60546875,52.4063614 C21.2030126,52.4063614 23.9608619,62.3110097 38.5703125,55.3168626 C53.1797631,48.3227155 69.2956168,55.3168626 76.140625,55.3168626" id="Path-2" transform="translate(40.873047, 55.012349) scale(1, -1) translate(-40.873047, -55.012349) "></path>
                        <path d="M2.32226562,26.25 C22.7324219,26.25 26.8652344,24.2421875 45.9824219,22.234375 C65.0996094,20.2265625 65.2363281,24.0373087 74.1933594,24.0373087" id="Path-2"></path>
                        <path d="M2.32226562,39.25 C22.7324219,39.25 31.3105469,43.9902344 50.4277344,41.9824219 C69.5449219,39.9746094 86.0351562,39.25 94.9921875,39.25 C100.963542,39.25 109.966146,38.5124362 122,37.0373087" id="Path-2"></path>
                    </g>
                    <path d="M1,1 L1,179.307636 L25.3932209,151 L192,151 L192,14 C192,6.82029825 186.179702,1 179,1 L1,1 Z" id="Rectangle-7" stroke="#FFFFFF" stroke-width="2"></path>
                    <path d="M125,181 L240,181 L240,267.621762 C240,281.981165 228.359403,293.621762 214,293.621762 L116.154267,293.621762 L97,315.849741 L97,209 C97,193.536027 109.536027,181 125,181 Z" id="Rectangle-7" fill="#FFFFFF" transform="translate(168.500000, 247.578697) scale(-1, 1) translate(-168.500000, -247.578697) "></path>
                </g>
                <g id="Group-54" transform="translate(125.000000, 218.000000)" opacity="0.728657156" stroke="#0040C0" stroke-linecap="round" stroke-linejoin="round" stroke-width="2">
                    <g id="Group-37">
                        <g id="Group-57" transform="translate(42.000000, 9.500000) scale(-1, 1) translate(-42.000000, -9.500000) ">
                            <path d="M0,13.2118497 C11.0565742,13.2118497 13.0115209,23.8088484 23.367669,16.3257995 C33.7238172,8.84275062 45.1478039,16.3257995 50,16.3257995" id="Path-2" transform="translate(25.000000, 16.000000) scale(-1, -1) translate(-25.000000, -16.000000) "></path>
                            <path d="M0,0.559894373 C14.3255814,0.559894373 20.3464382,5.78731694 33.7645043,3.57314702 C47.1825704,1.3589771 58.7568176,4.55989437 65.043623,4.55989437 C69.2348266,4.55989437 75.5536189,3.74652583 84,2.11978875" id="Path-2" transform="translate(42.000000, 2.559894) scale(-1, -1) translate(-42.000000, -2.559894) "></path>
                        </g>
                    </g>
                </g>
            </g>
        </g>
    </g>
</svg>