<svg xmlns="http://www.w3.org/2000/svg" width="26" height="46" viewBox="0 0 26 46"><path d="M160.003 23.2529C152.826 23.2529 147.00699999999998 28.7956 147.00699999999998 35.6323C147.00699999999998 42.4682 152.82599999999996 48.0105 160.003 48.0105C167.17999999999998 48.0105 172.998 42.4682 172.998 35.6323C172.998 28.7956 167.17999999999998 23.2529 160.003 23.2529ZM160.003 27.8953C164.488 27.8953 168.125 31.359099999999998 168.125 35.6323C168.125 39.9046 164.488 43.3685 160.003 43.3685C155.517 43.3685 151.88 39.904599999999995 151.88 35.6323C151.88 31.3591 155.517 27.8953 160.003 27.8953ZM160.003 49.507C156.38099999999997 49.507 153.444 52.303599999999996 153.444 55.753299999999996C153.444 59.2039 156.381 62.0006 160.003 62.0006C163.625 62.0006 166.56099999999998 59.2039 166.56099999999998 55.753299999999996C166.56099999999998 52.303599999999996 163.62499999999997 49.507 160.003 49.507ZM172.707 21.0949C172.707 22.8037 171.253 24.1894 169.459 24.1894C167.665 24.1894 166.21 22.8037 166.21 21.0949C166.21 19.3856 167.66500000000002 17.9998 169.459 17.9998C171.25300000000001 17.9998 172.707 19.3856 172.707 21.0949Z " fill="#fff" transform="matrix(1,0,0,1,-147,-17)"></path></svg>
